# Blender 3.5.0
# www.blender.org
mtllib target.mtl
o Cube
v 0.931626 0.056502 -0.178539
v 0.788457 0.056502 -0.524181
v 0.524181 0.056502 -0.788457
v 0.178539 0.056502 -0.931626
v 0.178539 -0.056502 -0.931626
v 0.524181 -0.056502 -0.788457
v 0.788457 -0.056502 -0.524181
v 0.931626 -0.056502 -0.178539
v 0.178539 0.056502 0.931626
v 0.524181 0.056502 0.788457
v 0.788457 0.056502 0.524181
v 0.931626 0.056502 0.178539
v 0.931626 -0.056502 0.178539
v 0.788457 -0.056502 0.524181
v 0.524181 -0.056502 0.788457
v 0.178539 -0.056502 0.931626
v -0.178539 0.056502 -0.931626
v -0.524181 0.056502 -0.788457
v -0.788457 0.056502 -0.524181
v -0.931626 0.056502 -0.178539
v -0.931626 -0.056502 -0.178539
v -0.788457 -0.056502 -0.524181
v -0.524181 -0.056502 -0.788457
v -0.178539 -0.056502 -0.931626
v -0.931626 0.056502 0.178539
v -0.788457 0.056502 0.524181
v -0.524181 0.056502 0.788457
v -0.178539 0.056502 0.931626
v -0.178539 -0.056502 0.931626
v -0.524181 -0.056502 0.788457
v -0.788457 -0.056502 0.524181
v -0.931626 -0.056502 0.178539
v 1.071533 0.056502 -0.713327
v 1.265537 0.056502 -0.244958
v 1.265537 -0.056502 -0.244958
v 1.071533 -0.056502 -0.713327
v 0.713327 -0.056502 -1.071533
v 0.244958 -0.056502 -1.265537
v 0.244958 0.056502 -1.265537
v 0.713327 0.056502 -1.071533
v -0.713327 -0.056502 1.071533
v -0.244958 -0.056502 1.265537
v -0.244958 0.056502 1.265537
v -0.713327 0.056502 1.071533
v -1.071533 0.056502 0.713327
v -1.265537 0.056502 0.244958
v -1.265537 -0.056502 0.244958
v -1.071533 -0.056502 0.713327
v 0.713327 0.056502 1.071533
v 0.244958 0.056502 1.265537
v 0.244958 -0.056502 1.265537
v 0.713327 -0.056502 1.071533
v 1.071533 -0.056502 0.713327
v 1.265537 -0.056502 0.244958
v 1.265537 0.056502 0.244958
v 1.071533 0.056502 0.713327
v -0.713327 0.056502 -1.071533
v -0.244958 0.056502 -1.265537
v -0.244958 -0.056502 -1.265537
v -0.713327 -0.056502 -1.071533
v -1.071533 -0.056502 -0.713327
v -1.265537 -0.056502 -0.244958
v -1.265537 0.056502 -0.244958
v -1.071533 0.056502 -0.713327
vn 0.7071 -0.0000 0.7071
vn -0.7071 -0.0000 0.7071
vn -0.7071 -0.0000 -0.7071
vn -0.0000 -0.0000 -1.0000
vn -0.9239 -0.0000 -0.3827
vn 1.0000 -0.0000 -0.0000
vn -0.0000 -0.0000 1.0000
vn -1.0000 -0.0000 -0.0000
vn 0.9239 -0.0000 -0.3827
vn 0.3827 -0.0000 -0.9239
vn -0.3827 -0.0000 0.9239
vn -0.9239 -0.0000 0.3827
vn 0.3827 -0.0000 0.9239
vn 0.9239 -0.0000 0.3827
vn -0.3827 -0.0000 -0.9239
vn 0.7071 -0.0000 -0.7071
vn -0.0000 1.0000 -0.0000
vn -0.0000 -1.0000 -0.0000
vt 0.657981 0.607365
vt 0.672122 0.573225
vt 0.698225 0.547122
vt 0.732365 0.532981
vt 0.267635 0.532981
vt 0.301775 0.547122
vt 0.327878 0.573225
vt 0.342019 0.607365
vt 0.732365 0.717019
vt 0.698225 0.702878
vt 0.672122 0.676775
vt 0.657981 0.642635
vt 0.342019 0.642635
vt 0.327878 0.676775
vt 0.301775 0.702878
vt 0.267635 0.717019
vt 0.767635 0.532981
vt 0.801775 0.547122
vt 0.827878 0.573225
vt 0.842019 0.607365
vt 0.157981 0.607365
vt 0.172122 0.573225
vt 0.198225 0.547122
vt 0.232365 0.532981
vt 0.842019 0.642635
vt 0.827878 0.676775
vt 0.801775 0.702878
vt 0.767635 0.717019
vt 0.232365 0.717019
vt 0.198225 0.702878
vt 0.172122 0.676775
vt 0.157981 0.642635
vt 0.625000 0.535381
vt 0.644162 0.554543
vt 0.625000 0.600805
vt 0.375000 0.600805
vt 0.375000 0.535381
vt 0.355838 0.554543
vt 0.375000 0.464619
vt 0.320457 0.519162
vt 0.375000 0.399195
vt 0.274195 0.500000
vt 0.625000 0.399195
vt 0.725805 0.500000
vt 0.625000 0.464619
vt 0.679543 0.519162
vt 0.375000 0.019162
vt 0.179543 0.730838
vt 0.375000 0.899195
vt 0.375000 0.000000
vt 0.225805 0.750000
vt 0.625000 0.899195
vt 0.625000 0.000000
vt 0.774195 0.750000
vt 0.625000 0.019162
vt 0.820457 0.730838
vt 0.625000 0.054543
vt 0.855838 0.695457
vt 0.625000 0.100805
vt 0.875000 0.649195
vt 0.375000 0.100805
vt 0.125000 0.649195
vt 0.375000 0.054543
vt 0.144162 0.695457
vt 0.625000 0.785381
vt 0.679543 0.730838
vt 0.625000 0.850805
vt 0.725805 0.750000
vt 0.375000 0.850805
vt 0.274195 0.750000
vt 0.375000 0.785381
vt 0.320457 0.730838
vt 0.375000 0.714619
vt 0.355838 0.695457
vt 0.375000 0.649195
vt 0.625000 0.649195
vt 0.625000 0.714619
vt 0.644162 0.695457
vt 0.625000 0.285381
vt 0.820457 0.519162
vt 0.625000 0.350805
vt 0.774195 0.500000
vt 0.375000 0.350805
vt 0.225805 0.500000
vt 0.375000 0.285381
vt 0.179543 0.519162
vt 0.375000 0.214619
vt 0.144162 0.554543
vt 0.375000 0.149195
vt 0.125000 0.600805
vt 0.625000 0.149195
vt 0.875000 0.600805
vt 0.625000 0.214619
vt 0.855838 0.554543
s 0
usemtl Material
f 49/65/1 52/71/1 53/73/1 56/77/1
f 41/47/2 44/55/2 45/57/2 48/63/2
f 57/79/3 60/85/3 61/87/3 64/93/3
f 59/83/4 58/81/4 39/43/4 38/41/4
f 13/13/5 14/14/5 11/11/5 12/12/5
f 35/36/6 34/35/6 55/76/6 54/75/6
f 51/69/7 50/67/7 43/52/7 42/49/7
f 47/61/8 46/59/8 63/91/8 62/89/8
f 8/8/8 13/13/8 12/12/8 1/1/8
f 34/35/9 35/36/9 36/37/9 33/33/9
f 38/41/10 39/43/10 40/45/10 37/39/10
f 42/50/11 43/53/11 44/55/11 41/47/11
f 46/59/12 47/61/12 48/63/12 45/57/12
f 50/67/13 51/69/13 52/71/13 49/65/13
f 54/75/14 55/76/14 56/77/14 53/73/14
f 58/81/15 59/83/15 60/85/15 57/79/15
f 62/89/5 63/91/5 64/93/5 61/87/5
f 33/33/16 36/37/16 37/39/16 40/45/16
f 2/2/17 1/1/17 34/35/17 33/34/17
f 8/8/18 7/7/18 36/38/18 35/36/18
f 6/6/18 5/5/18 38/42/18 37/40/18
f 4/4/17 3/3/17 40/46/17 39/44/17
f 30/30/18 29/29/18 42/51/18 41/48/18
f 28/28/17 27/27/17 44/56/17 43/54/17
f 26/26/17 25/25/17 46/60/17 45/58/17
f 32/32/18 31/31/18 48/64/18 47/62/18
f 10/10/17 9/9/17 50/68/17 49/66/17
f 16/16/18 15/15/18 52/72/18 51/70/18
f 14/14/18 13/13/18 54/75/18 53/74/18
f 12/12/17 11/11/17 56/78/17 55/76/17
f 18/18/17 17/17/17 58/82/17 57/80/17
f 24/24/18 23/23/18 60/86/18 59/84/18
f 22/22/18 21/21/18 62/90/18 61/88/18
f 20/20/17 19/19/17 64/94/17 63/92/17
f 3/3/17 2/2/17 33/34/17 40/46/17
f 7/7/18 6/6/18 37/40/18 36/38/18
f 13/13/18 8/8/18 35/36/18 54/75/18
f 1/1/17 12/12/17 55/76/17 34/35/17
f 17/17/17 4/4/17 39/44/17 58/82/17
f 19/19/17 18/18/17 57/80/17 64/94/17
f 25/25/17 20/20/17 63/92/17 46/60/17
f 27/27/17 26/26/17 45/58/17 44/56/17
f 9/9/17 28/28/17 43/54/17 50/68/17
f 11/11/17 10/10/17 49/66/17 56/78/17
f 5/5/18 24/24/18 59/84/18 38/42/18
f 21/21/18 32/32/18 47/62/18 62/90/18
f 23/23/18 22/22/18 61/88/18 60/86/18
f 15/15/18 14/14/18 53/74/18 52/72/18
f 29/29/18 16/16/18 51/70/18 42/51/18
f 31/31/18 30/30/18 41/48/18 48/64/18
f 14/14/3 15/15/3 10/10/3 11/11/3
f 15/15/15 16/16/15 9/9/15 10/10/15
f 16/16/4 29/29/4 28/28/4 9/9/4
f 29/29/10 30/30/10 27/27/10 28/28/10
f 30/30/16 31/31/16 26/26/16 27/27/16
f 31/31/9 32/32/9 25/25/9 26/26/9
f 32/32/6 21/21/6 20/20/6 25/25/6
f 21/21/14 22/22/14 19/19/14 20/20/14
f 22/22/1 23/23/1 18/18/1 19/19/1
f 23/23/13 24/24/13 17/17/13 18/18/13
f 24/24/7 5/5/7 4/4/7 17/17/7
f 5/5/11 6/6/11 3/3/11 4/4/11
f 6/6/2 7/7/2 2/2/2 3/3/2
f 7/7/12 8/8/12 1/1/12 2/2/12
